<svg xmlns="http://www.w3.org/2000/svg" xmlns:xlink="http://www.w3.org/1999/xlink" version="1.1" width="561" height="561" style="" xml:space="preserve"><rect id="backgroundrect" width="100%" height="100%" x="0" y="0" fill="none" stroke="none"/>
















<g class="currentLayer" style=""><title>Layer 1</title><g id="svg_1" class="" fill="#ffffff" fill-opacity="1">
	<g id="queue" fill="#ffffff" fill-opacity="1">
		<path d="M51,102H0v408c0,28.05,22.95,51,51,51h408v-51H51V102z M510,0H153c-28.05,0-51,22.95-51,51v357c0,28.05,22.95,51,51,51    h357c28.05,0,51-22.95,51-51V51C561,22.95,538.05,0,510,0z M459,255H357v102h-51V255H204v-51h102V102h51v102h102V255z" id="svg_2" fill="#ffffff" fill-opacity="1"/>
	</g>
</g><g id="svg_3">
</g><g id="svg_4">
</g><g id="svg_5">
</g><g id="svg_6">
</g><g id="svg_7">
</g><g id="svg_8">
</g><g id="svg_9">
</g><g id="svg_10">
</g><g id="svg_11">
</g><g id="svg_12">
</g><g id="svg_13">
</g><g id="svg_14">
</g><g id="svg_15">
</g><g id="svg_16">
</g><g id="svg_17">
</g></g></svg>